{
    "asset" : {
        "generator" : "Khronos glTF Blender I/O v1.6.16",
        "version" : "2.0"
    },
    "scene" : 0,
    "scenes" : [
        {
            "name" : "Scene",
            "nodes" : [
                0
            ]
        }
    ],
    "nodes" : [
        {
            "mesh" : 0,
            "name" : "Mesh"
        }
    ],
    "materials" : [
        {
            "doubleSided" : true,
            "name" : "Main",
            "pbrMetallicRoughness" : {
                "metallicFactor" : 0.5,
                "roughnessFactor" : 0.10000000149011612
            }
        },
        {
            "doubleSided" : true,
            "name" : "Second",
            "pbrMetallicRoughness" : {
                "metallicFactor" : 0,
                "roughnessFactor" : 0.10000000149011612
            }
        },
        {
            "doubleSided" : true,
            "name" : "Metal",
            "pbrMetallicRoughness" : {
                "roughnessFactor" : 0.25
            }
        },
        {
            "doubleSided" : true,
            "emissiveFactor" : [
                0,
                1,
                1
            ],
            "name" : "Light",
            "pbrMetallicRoughness" : {}
        },
        {
            "doubleSided" : true,
            "name" : "Glass",
            "pbrMetallicRoughness" : {}
        }
    ],
    "meshes" : [
        {
            "name" : "Mesh",
            "primitives" : [
                {
                    "attributes" : {
                        "POSITION" : 0,
                        "NORMAL" : 1,
                        "TEXCOORD_0" : 2,
                        "TEXCOORD_1" : 3
                    },
                    "indices" : 4,
                    "material" : 0
                },
                {
                    "attributes" : {
                        "POSITION" : 5,
                        "NORMAL" : 6,
                        "TEXCOORD_0" : 7,
                        "TEXCOORD_1" : 8
                    },
                    "indices" : 9,
                    "material" : 1
                },
                {
                    "attributes" : {
                        "POSITION" : 10,
                        "NORMAL" : 11,
                        "TEXCOORD_0" : 12,
                        "TEXCOORD_1" : 13
                    },
                    "indices" : 14,
                    "material" : 2
                },
                {
                    "attributes" : {
                        "POSITION" : 15,
                        "NORMAL" : 16,
                        "TEXCOORD_0" : 17,
                        "TEXCOORD_1" : 18
                    },
                    "indices" : 19,
                    "material" : 3
                },
                {
                    "attributes" : {
                        "POSITION" : 20,
                        "NORMAL" : 21,
                        "TEXCOORD_0" : 22,
                        "TEXCOORD_1" : 23
                    },
                    "indices" : 24,
                    "material" : 4
                }
            ]
        }
    ],
    "accessors" : [
        {
            "bufferView" : 0,
            "componentType" : 5126,
            "count" : 2243,
            "max" : [
                14.677362442016602,
                6.393212795257568,
                15.868447303771973
            ],
            "min" : [
                -4.89519739151001,
                -5.246787071228027,
                -15.868449211120605
            ],
            "type" : "VEC3"
        },
        {
            "bufferView" : 1,
            "componentType" : 5126,
            "count" : 2243,
            "type" : "VEC3"
        },
        {
            "bufferView" : 2,
            "componentType" : 5126,
            "count" : 2243,
            "type" : "VEC2"
        },
        {
            "bufferView" : 3,
            "componentType" : 5126,
            "count" : 2243,
            "type" : "VEC2"
        },
        {
            "bufferView" : 4,
            "componentType" : 5123,
            "count" : 5751,
            "type" : "SCALAR"
        },
        {
            "bufferView" : 5,
            "componentType" : 5126,
            "count" : 6465,
            "max" : [
                14.591998100280762,
                6.393212795257568,
                15.868447303771973
            ],
            "min" : [
                -7.042642116546631,
                -5.246787071228027,
                -15.868449211120605
            ],
            "type" : "VEC3"
        },
        {
            "bufferView" : 6,
            "componentType" : 5126,
            "count" : 6465,
            "type" : "VEC3"
        },
        {
            "bufferView" : 7,
            "componentType" : 5126,
            "count" : 6465,
            "type" : "VEC2"
        },
        {
            "bufferView" : 8,
            "componentType" : 5126,
            "count" : 6465,
            "type" : "VEC2"
        },
        {
            "bufferView" : 9,
            "componentType" : 5123,
            "count" : 17655,
            "type" : "SCALAR"
        },
        {
            "bufferView" : 10,
            "componentType" : 5126,
            "count" : 25518,
            "max" : [
                14.977362632751465,
                6.415881156921387,
                15.367732048034668
            ],
            "min" : [
                -7.442641735076904,
                -4.653834819793701,
                -15.367733001708984
            ],
            "type" : "VEC3"
        },
        {
            "bufferView" : 11,
            "componentType" : 5126,
            "count" : 25518,
            "type" : "VEC3"
        },
        {
            "bufferView" : 12,
            "componentType" : 5126,
            "count" : 25518,
            "type" : "VEC2"
        },
        {
            "bufferView" : 13,
            "componentType" : 5126,
            "count" : 25518,
            "type" : "VEC2"
        },
        {
            "bufferView" : 14,
            "componentType" : 5123,
            "count" : 74670,
            "type" : "SCALAR"
        },
        {
            "bufferView" : 15,
            "componentType" : 5126,
            "count" : 2800,
            "max" : [
                8.168046951293945,
                4.65418004989624,
                14.640167236328125
            ],
            "min" : [
                -6.442641735076904,
                -4.395359992980957,
                -14.640166282653809
            ],
            "type" : "VEC3"
        },
        {
            "bufferView" : 16,
            "componentType" : 5126,
            "count" : 2800,
            "type" : "VEC3"
        },
        {
            "bufferView" : 17,
            "componentType" : 5126,
            "count" : 2800,
            "type" : "VEC2"
        },
        {
            "bufferView" : 18,
            "componentType" : 5126,
            "count" : 2800,
            "type" : "VEC2"
        },
        {
            "bufferView" : 19,
            "componentType" : 5123,
            "count" : 6462,
            "type" : "SCALAR"
        },
        {
            "bufferView" : 20,
            "componentType" : 5126,
            "count" : 24,
            "max" : [
                14.243849754333496,
                0.13861098885536194,
                2.402225971221924
            ],
            "min" : [
                8.884702682495117,
                -3.3370139598846436,
                -2.402235507965088
            ],
            "type" : "VEC3"
        },
        {
            "bufferView" : 21,
            "componentType" : 5126,
            "count" : 24,
            "type" : "VEC3"
        },
        {
            "bufferView" : 22,
            "componentType" : 5126,
            "count" : 24,
            "type" : "VEC2"
        },
        {
            "bufferView" : 23,
            "componentType" : 5126,
            "count" : 24,
            "type" : "VEC2"
        },
        {
            "bufferView" : 24,
            "componentType" : 5123,
            "count" : 60,
            "type" : "SCALAR"
        }
    ],
    "bufferViews" : [
        {
            "buffer" : 0,
            "byteLength" : 26916,
            "byteOffset" : 0
        },
        {
            "buffer" : 0,
            "byteLength" : 26916,
            "byteOffset" : 26916
        },
        {
            "buffer" : 0,
            "byteLength" : 17944,
            "byteOffset" : 53832
        },
        {
            "buffer" : 0,
            "byteLength" : 17944,
            "byteOffset" : 71776
        },
        {
            "buffer" : 0,
            "byteLength" : 11502,
            "byteOffset" : 89720
        },
        {
            "buffer" : 0,
            "byteLength" : 77580,
            "byteOffset" : 101224
        },
        {
            "buffer" : 0,
            "byteLength" : 77580,
            "byteOffset" : 178804
        },
        {
            "buffer" : 0,
            "byteLength" : 51720,
            "byteOffset" : 256384
        },
        {
            "buffer" : 0,
            "byteLength" : 51720,
            "byteOffset" : 308104
        },
        {
            "buffer" : 0,
            "byteLength" : 35310,
            "byteOffset" : 359824
        },
        {
            "buffer" : 0,
            "byteLength" : 306216,
            "byteOffset" : 395136
        },
        {
            "buffer" : 0,
            "byteLength" : 306216,
            "byteOffset" : 701352
        },
        {
            "buffer" : 0,
            "byteLength" : 204144,
            "byteOffset" : 1007568
        },
        {
            "buffer" : 0,
            "byteLength" : 204144,
            "byteOffset" : 1211712
        },
        {
            "buffer" : 0,
            "byteLength" : 149340,
            "byteOffset" : 1415856
        },
        {
            "buffer" : 0,
            "byteLength" : 33600,
            "byteOffset" : 1565196
        },
        {
            "buffer" : 0,
            "byteLength" : 33600,
            "byteOffset" : 1598796
        },
        {
            "buffer" : 0,
            "byteLength" : 22400,
            "byteOffset" : 1632396
        },
        {
            "buffer" : 0,
            "byteLength" : 22400,
            "byteOffset" : 1654796
        },
        {
            "buffer" : 0,
            "byteLength" : 12924,
            "byteOffset" : 1677196
        },
        {
            "buffer" : 0,
            "byteLength" : 288,
            "byteOffset" : 1690120
        },
        {
            "buffer" : 0,
            "byteLength" : 288,
            "byteOffset" : 1690408
        },
        {
            "buffer" : 0,
            "byteLength" : 192,
            "byteOffset" : 1690696
        },
        {
            "buffer" : 0,
            "byteLength" : 192,
            "byteOffset" : 1690888
        },
        {
            "buffer" : 0,
            "byteLength" : 120,
            "byteOffset" : 1691080
        }
    ],
    "buffers" : [
        {
            "byteLength" : 1691200,
            "uri" : "ChocolateShip.bin"
        }
    ]
}
